<?xml version="1.0" encoding="utf-8"?>
<!-- Generator: Adobe Illustrator 16.0.0, SVG Export Plug-In . SVG Version: 6.00 Build 0)  -->
<!DOCTYPE svg PUBLIC "-//W3C//DTD SVG 1.1//EN" "http://www.w3.org/Graphics/SVG/1.1/DTD/svg11.dtd">
<svg version="1.1" id="Layer_1" xmlns="http://www.w3.org/2000/svg" xmlns:xlink="http://www.w3.org/1999/xlink" x="0px" y="0px"
	 width="67px" height="101px" viewBox="0 0 67 101" enable-background="new 0 0 67 101" xml:space="preserve">
<polyline fill="#FFFFFF" points="65.578,38.664 0,76.271 0,101.13 67.131,63.369 66.131,38.788 "/>
<polygon opacity="0.18" fill="#020202" points="67.131,63.357 35.821,55.729 46.406,49.632 "/>
<polygon fill="#FFFFFF" points="0,25.594 0,0 67.131,38.496 67.131,63.357 "/>
<g>
	<path fill="#4C4C4C" d="M8.082,83.544c-0.304-0.531-0.396-1.031-0.279-1.497c0.117-0.467,0.431-0.846,0.94-1.137
		c0.482-0.275,0.953-0.338,1.41-0.188c0.459,0.148,0.841,0.49,1.146,1.025l1.972,3.457c0.338,0.591,0.459,1.126,0.363,1.604
		c-0.096,0.479-0.4,0.865-0.914,1.158c-0.52,0.297-1.006,0.362-1.46,0.199c-0.454-0.164-0.856-0.552-1.206-1.164L8.082,83.544z
		 M12.325,86.027l-2.148-3.764c-0.133-0.234-0.277-0.383-0.435-0.449c-0.157-0.064-0.323-0.047-0.501,0.055
		c-0.177,0.101-0.277,0.235-0.302,0.403c-0.023,0.169,0.031,0.369,0.165,0.603l2.147,3.765c0.133,0.233,0.278,0.384,0.436,0.45
		c0.158,0.066,0.325,0.05,0.503-0.052c0.177-0.101,0.277-0.236,0.3-0.405C12.514,86.463,12.458,86.262,12.325,86.027z"/>
	<path fill="#4C4C4C" d="M15.715,86.066l-3.849-6.746l2.711-1.546l0.557,0.975l-1.67,0.953l1.008,1.768l1.204-0.687l0.556,0.976
		l-1.203,0.687l1.728,3.027L15.715,86.066z"/>
	<path fill="#4C4C4C" d="M16.668,77.874l-0.556-0.976l3.2-1.825l0.556,0.976l-1.082,0.617l3.292,5.771l-1.04,0.593l-3.293-5.771
		L16.668,77.874z"/>
	<path fill="#4C4C4C" d="M20.317,74.5l1.031-0.588l1.57,2.752l1.04-0.593l-1.569-2.753l1.041-0.594l3.848,6.746l-1.041,0.594
		l-1.722-3.019l-1.04,0.594l1.722,3.019l-1.031,0.588L20.317,74.5z"/>
	<path fill="#4C4C4C" d="M28.876,78.56l-3.848-6.746l2.716-1.55l0.556,0.976l-1.675,0.956l1.009,1.768l1.207-0.688l0.557,0.976
		l-1.207,0.688l1.149,2.016l1.675-0.955l0.578,1.012L28.876,78.56z"/>
	<path fill="#4C4C4C" d="M34.235,75.503l-5.248-9.199l2.018-1.151c0.781-0.444,1.476-0.568,2.086-0.371
		c0.609,0.197,1.161,0.726,1.652,1.587l2.344,4.11c0.511,0.895,0.704,1.647,0.58,2.258c-0.124,0.609-0.574,1.137-1.351,1.579
		L34.235,75.503z M34.869,73.346l0.72-0.41c0.249-0.143,0.39-0.327,0.422-0.553c0.031-0.226-0.047-0.505-0.236-0.836l-2.525-4.428
		c-0.216-0.377-0.465-0.602-0.748-0.674c-0.282-0.072-0.619,0.004-1.01,0.227l-0.324,0.185L34.869,73.346z"/>
	<path fill="#4C4C4C" d="M39.903,72.27l-3.734-10.063l1.852-1.057l6.756,8.34l-1.457,0.831l-1.422-1.828l-1.432,0.817l0.83,2.165
		L39.903,72.27z M39.899,67.904l1.082-0.617l-2.676-3.566l-0.09,0.051L39.899,67.904z"/>
	<path fill="#4C4C4C" d="M40.168,59.926l1.438-0.82l3.02,3.151l0.09-0.051l-1.221-4.178l1.445-0.824l1.416,6.326l2.178,3.816
		l-1.419,0.81l-2.08-3.645L40.168,59.926z"/>
</g>
<g>
	<path fill="#4C4C4C" d="M15.303,15.525l1.361,0.762l-2.431,5.832c-0.125,0.294-0.246,0.562-0.361,0.805
		c-0.117,0.243-0.236,0.476-0.36,0.696l-0.1,0.18c0.07-0.117,0.173-0.281,0.308-0.491c0.448-0.712,0.723-1.132,0.822-1.261
		l3.669-4.896l1.215,0.68l-2.3,5.897c-0.09,0.229-0.202,0.485-0.338,0.768s-0.296,0.59-0.482,0.923
		c0.033-0.061,0.088-0.146,0.164-0.262c0.471-0.754,0.794-1.251,0.968-1.489l3.548-4.964l1.349,0.754l-6.608,8.439l-1.195-0.669
		l2.219-5.8c0.087-0.225,0.2-0.483,0.341-0.774c0.14-0.291,0.301-0.599,0.481-0.922c-0.307,0.488-0.554,0.879-0.742,1.171
		c-0.188,0.291-0.318,0.485-0.387,0.58l-3.664,4.766l-1.189-0.665L15.303,15.525z"/>
	<path fill="#4C4C4C" d="M18.71,29.565l5.169-9.244l3.721,2.081l-0.747,1.336l-2.296-1.283l-1.354,2.423l1.653,0.925l-0.747,1.336
		l-1.653-0.925l-1.545,2.762l2.296,1.283l-0.776,1.388L18.71,29.565z"/>
	<path fill="#4C4C4C" d="M24.25,32.663l5.169-9.243l1.886,1.055c0.758,0.425,1.226,0.962,1.406,1.613
		c0.178,0.65,0.053,1.359-0.376,2.126c-0.258,0.461-0.564,0.819-0.921,1.076c-0.356,0.257-0.773,0.416-1.25,0.479
		c0.257,0.43,0.375,0.878,0.354,1.343c-0.023,0.466-0.189,0.976-0.499,1.53c-0.472,0.844-1.006,1.363-1.602,1.558
		c-0.596,0.196-1.284,0.076-2.064-0.36L24.25,32.663z M26.41,32.117l0.614,0.343c0.307,0.172,0.591,0.191,0.853,0.059
		c0.263-0.134,0.521-0.429,0.776-0.885c0.281-0.502,0.402-0.905,0.362-1.211c-0.039-0.304-0.247-0.562-0.622-0.771l-0.46-0.257
		L26.41,32.117z M28.68,28.059l0.575,0.321c0.26,0.146,0.524,0.147,0.794,0.008c0.268-0.142,0.514-0.412,0.738-0.813
		c0.246-0.438,0.35-0.797,0.313-1.075c-0.038-0.278-0.223-0.511-0.556-0.696l-0.46-0.258L28.68,28.059z"/>
	<path fill="#4C4C4C" d="M31.395,33.579l1.477,0.558c-0.237,0.483-0.341,0.88-0.312,1.188c0.028,0.311,0.191,0.549,0.489,0.715
		c0.26,0.146,0.517,0.182,0.77,0.107c0.253-0.073,0.457-0.244,0.607-0.512c0.27-0.482,0.233-1.319-0.107-2.511
		c-0.026-0.093-0.046-0.163-0.06-0.21c-0.33-1.169-0.489-2.015-0.477-2.537c0.012-0.521,0.144-1.008,0.397-1.46
		c0.364-0.652,0.886-1.081,1.563-1.286c0.677-0.206,1.324-0.137,1.942,0.209c0.601,0.336,0.979,0.817,1.132,1.443
		s0.062,1.305-0.276,2.039l-1.505-0.581c0.206-0.428,0.299-0.765,0.276-1.013c-0.021-0.246-0.157-0.439-0.409-0.58
		c-0.229-0.129-0.457-0.154-0.684-0.076c-0.225,0.078-0.41,0.247-0.556,0.507c-0.3,0.537-0.245,1.487,0.166,2.854
		c0.015,0.054,0.027,0.097,0.037,0.13c0.299,1.007,0.437,1.77,0.415,2.289c-0.021,0.519-0.173,1.03-0.454,1.533
		c-0.377,0.673-0.896,1.109-1.555,1.308c-0.66,0.199-1.309,0.12-1.948-0.237c-0.707-0.396-1.143-0.936-1.305-1.619
		C30.855,35.152,30.981,34.399,31.395,33.579z"/>
	<path fill="#4C4C4C" d="M36.371,39.442l5.17-9.243l1.451,0.812l-5.169,9.244L36.371,39.442z"/>
	<path fill="#4C4C4C" d="M43.585,33.096l0.747-1.336l4.386,2.452l-0.747,1.336l-1.483-0.829l-4.423,7.908l-1.426-0.798l4.423-7.908
		L43.585,33.096z"/>
	<path fill="#4C4C4C" d="M44.926,44.227l5.17-9.243l3.721,2.081L53.069,38.4l-2.295-1.284l-1.354,2.423l1.653,0.925L50.326,41.8
		l-1.653-0.925l-1.545,2.762l2.295,1.284l-0.775,1.387L44.926,44.227z"/>
</g>
</svg>
